# Blender v2.92.0 OBJ File: 'd10.blend'
# www.blender.org
mtllib d10.mtl
o Cone_Cone.001
v 0.000000 -0.247383 -0.260720
v 0.247959 -0.247383 -0.080567
v 0.153247 -0.247383 0.210927
v -0.153247 -0.247383 0.210927
v -0.247959 -0.247383 -0.080567
v 0.000000 0.065180 0.000000
v -0.153247 -0.326200 -0.210927
v 0.153247 -0.326200 -0.210927
v 0.247959 -0.326200 0.080567
v -0.000000 -0.326200 0.260720
v -0.247959 -0.326200 0.080567
v 0.000000 -0.638763 -0.000000
vt 0.010240 0.717428
vt 0.277102 0.676204
vt 0.114656 0.891903
vt 0.311182 0.944072
vt 0.488384 0.844354
vt 0.545784 0.649292
vt 0.450836 0.469490
vt 0.458053 0.350708
vt 0.553001 0.530510
vt 0.889182 0.108097
vt 0.993597 0.282572
vt 0.726736 0.323795
vt 0.994460 0.163574
vt 0.009377 0.836426
vt 0.576417 0.764283
vt 0.515454 0.155645
vt 0.692656 0.055928
vt 0.427421 0.235717
vt 0.806787 0.022234
vt 0.430114 0.948113
vt 0.573723 0.051886
vt 0.197050 0.977766
vn 0.4872 0.5594 -0.6706
vn 0.7883 0.5594 0.2561
vn -0.0000 0.5594 0.8289
vn -0.7883 0.5594 0.2561
vn -0.4872 0.5594 -0.6706
vn 0.0000 -0.5341 -0.8454
vn -0.7883 -0.5594 -0.2561
vn -0.8040 -0.5341 -0.2612
vn 0.4969 0.5341 -0.6840
vn -0.4969 0.5341 -0.6840
vn -0.8040 0.5341 0.2612
vn 0.4872 -0.5594 0.6706
vn 0.0000 -0.5594 -0.8289
vn -0.4872 -0.5594 0.6706
vn 0.7883 -0.5594 -0.2561
vn 0.8040 -0.5341 -0.2612
vn -0.4969 -0.5341 0.6840
vn -0.0000 0.5341 0.8454
vn 0.4969 -0.5341 0.6840
vn 0.8040 0.5341 0.2612
usemtl Material.001
s off
f 1/1/1 6/2/1 2/3/1
f 2/3/2 6/2/2 3/4/2
f 3/4/3 6/2/3 4/5/3
f 4/5/4 6/2/4 5/6/4
f 5/6/5 6/2/5 1/7/5
f 8/8/6 7/9/6 1/7/6
f 11/10/7 7/11/7 12/12/7
f 7/11/8 11/10/8 5/13/8
f 2/3/9 8/14/9 1/1/9
f 1/7/10 7/9/10 5/6/10
f 5/6/11 11/15/11 4/5/11
f 9/16/12 10/17/12 12/12/12
f 7/9/13 8/8/13 12/12/13
f 10/17/14 11/10/14 12/12/14
f 8/8/15 9/16/15 12/12/15
f 8/8/16 2/18/16 9/16/16
f 11/10/17 10/17/17 4/19/17
f 4/5/18 10/20/18 3/4/18
f 10/17/19 9/16/19 3/21/19
f 2/3/20 3/4/20 9/22/20
