# Blender v2.92.0 OBJ File: 'd12.blend'
# www.blender.org
mtllib dodecahedron.mtl
o Solid
v 0.181404 0.181404 -0.181404
v 0.181404 -0.181404 -0.181404
v 0.181404 0.181404 0.181404
v 0.181404 -0.181404 0.181404
v -0.181404 0.181404 -0.181404
v -0.181404 -0.181404 -0.181404
v -0.181404 0.181404 0.181404
v -0.181404 -0.181404 0.181404
v 0.112114 0.000000 -0.293518
v -0.112114 0.000000 -0.293518
v 0.112114 0.000000 0.293518
v -0.112114 0.000000 0.293518
v 0.293518 0.112114 0.000000
v 0.293518 -0.112114 0.000000
v -0.293518 0.112114 0.000000
v -0.293518 -0.112114 0.000000
v 0.000000 0.293518 -0.112114
v 0.000000 0.293518 0.112114
v 0.000000 -0.293518 -0.112114
v 0.000000 -0.293518 0.112114
vt 0.246804 0.719540
vt 0.124285 0.678739
vt 0.248330 0.510602
vt 0.323468 0.615625
vt 0.125228 0.549609
vt 0.321942 0.824562
vt 0.122759 0.887676
vt 0.123702 0.758546
vt 0.245278 0.928477
vt 0.445044 0.785556
vt 0.445987 0.656426
vt 0.526646 0.005507
vt 0.649165 0.046307
vt 0.525120 0.214444
vt 0.449982 0.109421
vt 0.648221 0.175437
vt 0.443518 0.994493
vt 0.320999 0.953693
vt 0.520181 0.890579
vt 0.324411 0.486495
vt 0.522651 0.552512
vt 0.447513 0.447489
vt 0.402601 0.173644
vt 0.401075 0.382581
vt 0.325937 0.277558
vt 0.524177 0.343574
vt 0.569088 0.617419
vt 0.644226 0.722442
vt 0.567562 0.826356
vt 0.846461 0.241454
vt 0.723359 0.280460
vt 0.724885 0.071523
vt 0.847404 0.112324
vt 0.646695 0.384375
vt 0.645752 0.513505
vt 0.844935 0.450391
vt 0.721833 0.489398
vt 0.845878 0.321261
vn 0.0000 0.5257 -0.8507
vn 0.8507 0.0000 -0.5257
vn 0.5257 0.8507 0.0000
vn 0.0000 -0.5257 -0.8507
vn 0.8507 0.0000 0.5257
vn -0.5257 0.8507 0.0000
vn -0.8507 0.0000 -0.5257
vn 0.0000 0.5257 0.8507
vn 0.5257 -0.8507 0.0000
vn -0.5257 -0.8507 0.0000
vn -0.8507 0.0000 0.5257
vn 0.0000 -0.5257 0.8507
usemtl Material.001
s off
f 1/1/1 9/2/1 5/3/1 17/4/1
f 9/2/1 10/5/1 5/3/1
f 1/1/2 13/6/2 2/7/2 9/8/2
f 13/6/2 14/9/2 2/7/2
f 1/1/3 17/4/3 3/10/3 13/6/3
f 17/4/3 18/11/3 3/10/3
f 9/12/4 2/13/4 6/14/4 10/15/4
f 2/13/4 19/16/4 6/14/4
f 13/6/5 3/10/5 4/17/5 14/18/5
f 3/10/5 11/19/5 4/17/5
f 17/4/6 5/20/6 7/21/6 18/11/6
f 5/20/6 15/22/6 7/21/6
f 10/23/7 6/14/7 15/24/7 5/25/7
f 6/14/7 16/26/7 15/24/7
f 7/27/8 12/28/8 3/10/8 18/11/8
f 12/28/8 11/29/8 3/10/8
f 4/30/9 20/31/9 2/32/9 14/33/9
f 20/31/9 19/16/9 2/32/9
f 8/34/10 16/26/10 19/16/10 20/31/10
f 16/26/10 6/14/10 19/16/10
f 8/34/11 12/35/11 15/22/11 16/26/11
f 12/35/11 7/21/11 15/22/11
f 8/34/12 20/31/12 11/36/12 12/37/12
f 20/31/12 4/38/12 11/36/12
