# Blender v2.82 (sub 7) OBJ File: 'hexagon.blend'
# www.blender.org
mtllib hexagon.mtl
o Plane_Plane.001
v -0.250000 0.000000 0.433012
v 0.250000 0.000000 0.433012
v -0.250000 0.000000 -0.433012
v 0.250000 0.000000 -0.433012
v -0.500000 0.000000 0.000000
v 0.500000 0.000000 0.000000
v -0.250000 0.250000 0.433012
v 0.250000 0.250000 0.433012
v -0.500000 0.250000 0.000000
v 0.250000 0.250000 -0.433012
v -0.250000 0.250000 -0.433012
v 0.500000 0.250000 0.000000
vt 0.996433 0.187641
vt 0.996433 0.435677
vt 0.781627 0.559695
vt 0.566821 0.435677
vt 0.566821 0.187640
vt 0.781627 0.063622
vt 0.287493 0.063742
vt 0.502299 0.187760
vt 0.502299 0.435797
vt 0.287493 0.559815
vt 0.072687 0.435796
vt 0.072687 0.187760
vt 0.533303 0.489498
vt 0.318497 0.613516
vt 0.256488 0.613516
vt 0.041682 0.489498
vt 0.318497 0.010040
vt 0.533303 0.134059
vt 0.564308 0.187760
vt 0.564308 0.435797
vt 0.010678 0.435796
vt 0.010678 0.187760
vt 0.041682 0.134059
vt 0.256488 0.010040
vn 0.0000 -1.0000 0.0000
vn 0.0000 1.0000 0.0000
vn 0.8660 0.0000 -0.5000
vn 0.0000 0.0000 -1.0000
vn 0.0000 0.0000 1.0000
vn 0.8660 0.0000 0.5000
vn -0.8660 0.0000 -0.5000
vn -0.8660 0.0000 0.5000
usemtl Material.001
s off
f 1/1/1 5/2/1 3/3/1 4/4/1 6/5/1 2/6/1
f 7/7/2 8/8/2 12/9/2 10/10/2 11/11/2 9/12/2
f 6/13/3 4/14/3 10/10/3 12/9/3
f 4/15/4 3/16/4 11/11/4 10/10/4
f 1/17/5 2/18/5 8/8/5 7/7/5
f 2/19/6 6/20/6 12/9/6 8/8/6
f 3/21/7 5/22/7 9/12/7 11/11/7
f 5/23/8 1/24/8 7/7/8 9/12/8
