# Blender v2.92.0 OBJ File: 'icosahedon.blend'
# www.blender.org
mtllib icosahedon.mtl
o Icosahedron_Icosphere.002
v 0.000000 -0.306468 0.000000
v 0.221760 -0.137057 0.161116
v -0.084703 -0.137057 0.260694
v -0.274113 -0.137057 0.000000
v -0.084703 -0.137057 -0.260694
v 0.221760 -0.137057 -0.161116
v 0.084703 0.137057 0.260694
v -0.221760 0.137057 0.161116
v -0.221760 0.137057 -0.161116
v 0.084703 0.137057 -0.260694
v 0.274113 0.137057 0.000000
v 0.000000 0.306468 0.000000
vt 0.157505 0.545449
vt 0.157505 0.363656
vt 0.314942 0.454551
vt 0.000069 0.454551
vt 0.314944 0.636345
vt 0.157506 0.727241
vt 0.000069 0.636346
vt 0.000069 0.272762
vt 0.157505 0.181862
vt 0.314943 0.272758
vt 0.472382 0.545447
vt 0.314945 0.818139
vt 0.000069 0.818137
vt 0.157508 0.909034
vt 0.472380 0.363653
vt 0.472381 0.727245
vt 0.000070 0.999930
vt 0.314943 0.090966
vt 0.472380 0.181862
vt 0.472382 0.000072
vt 0.314945 0.999931
vt 0.157507 0.000069
vn 0.1876 -0.7947 0.5774
vn 0.6071 -0.7947 0.0000
vn -0.4911 -0.7947 0.3568
vn -0.4911 -0.7947 -0.3568
vn 0.1876 -0.7947 -0.5774
vn 0.9822 -0.1876 0.0000
vn 0.3035 -0.1876 0.9342
vn -0.7946 -0.1876 0.5774
vn -0.7946 -0.1876 -0.5774
vn 0.3035 -0.1876 -0.9342
vn 0.7946 0.1876 0.5774
vn -0.3035 0.1876 0.9342
vn -0.9822 0.1876 0.0000
vn -0.3035 0.1876 -0.9342
vn 0.7946 0.1876 -0.5774
vn 0.4911 0.7947 0.3568
vn -0.1876 0.7947 0.5774
vn -0.6071 0.7947 0.0000
vn -0.1876 0.7947 -0.5774
vn 0.4911 0.7947 -0.3568
usemtl Material.001
s off
f 1/1/1 2/2/1 3/3/1
f 2/2/2 1/1/2 6/4/2
f 1/1/3 3/3/3 4/5/3
f 1/1/4 4/5/4 5/6/4
f 1/1/5 5/6/5 6/7/5
f 2/2/6 6/8/6 11/9/6
f 3/3/7 2/2/7 7/10/7
f 4/5/8 3/3/8 8/11/8
f 5/6/9 4/5/9 9/12/9
f 6/13/10 5/6/10 10/14/10
f 2/2/11 11/9/11 7/10/11
f 3/3/12 7/10/12 8/15/12
f 4/5/13 8/16/13 9/12/13
f 5/6/14 9/12/14 10/14/14
f 6/13/15 10/14/15 11/17/15
f 7/10/16 11/9/16 12/18/16
f 8/19/17 7/10/17 12/18/17
f 9/20/18 8/19/18 12/18/18
f 10/14/19 9/12/19 12/21/19
f 11/9/20 10/22/20 12/18/20
