# Blender v2.92.0 OBJ File: 'octahedron.blend'
# www.blender.org
mtllib octahedron.mtl
o Cone
v 0.000000 0.312305 0.000000
v -0.000000 -0.312305 0.000000
v 0.000000 0.000000 -0.298413
v 0.298413 0.000000 0.000000
v -0.000000 0.000000 0.298413
v -0.298413 0.000000 -0.000000
vt 0.456485 0.999923
vt 0.293288 0.756048
vt 0.586500 0.744405
vt 0.149941 0.500000
vt 0.000077 0.744405
vt 0.436635 0.500000
vt 0.586500 0.255595
vt 0.293288 0.243952
vt 0.000077 0.255595
vt 0.456485 0.000077
vn -0.5859 0.5598 -0.5859
vn -0.5859 0.5598 0.5859
vn 0.5859 0.5598 -0.5859
vn 0.5859 0.5598 0.5859
vn 0.5859 -0.5598 -0.5859
vn 0.5859 -0.5598 0.5859
vn -0.5859 -0.5598 0.5859
vn -0.5859 -0.5598 -0.5859
usemtl Material.002
s off
f 6/1/1 1/2/1 3/3/1
f 5/4/2 1/2/2 6/5/2
f 3/3/3 1/2/3 4/6/3
f 4/6/4 1/2/4 5/4/4
f 3/7/5 4/6/5 2/8/5
f 4/6/6 5/4/6 2/8/6
f 5/4/7 6/9/7 2/8/7
f 6/10/8 3/7/8 2/8/8
